<?xml version="1.0" encoding="utf-8"?>
<!-- Generator: Adobe Illustrator 16.0.4, SVG Export Plug-In . SVG Version: 6.00 Build 0)  -->
<!DOCTYPE svg PUBLIC "-//W3C//DTD SVG 1.1//EN" "http://www.w3.org/Graphics/SVG/1.1/DTD/svg11.dtd">
<svg version="1.1" id="Layer_1" xmlns="http://www.w3.org/2000/svg" xmlns:xlink="http://www.w3.org/1999/xlink" x="0px" y="0px"
	 width="240.15px" height="239.918px" viewBox="0 0 240.15 239.918" enable-background="new 0 0 240.15 239.918"
	 xml:space="preserve">
<g>
	<g>
		<path fill="#FFFFFF" d="M1.823,0c78.763,0,157.525,0,236.278,0c2.98,1.252,1.831,10.519,1.831,15.961
			c0,69.388,0,138.804,0,208.792c0,5.694,0.92,14.331-1.567,15.165c-78.932,0-157.865,0-236.804,0
			c-0.667-0.45-1.208-1.038-1.562-1.831C0,159.334,0,80.584,0,1.822C0.421,1.044,1.028,0.43,1.823,0z M17.785,7.065
			c1.19-0.822,2.634-1.375,3.663-2.355c-2.617,0.174-5.926-0.35-8.107,0.264C14.844,5.638,16.122,6.545,17.785,7.065z
			 M18.302,12.559C12.63,17.095,9.11,22.282,6.795,28.785c-5.417,15.172,0.945,29.473,8.63,37.16
			c6.061,6.058,14.324,10.491,25.371,10.453C60.421,76.338,77.045,60.8,76.647,40.03C76.255,19.774,60.316,3.714,38.965,4.97
			C30.302,5.481,23.453,8.44,18.302,12.559z M69.335,11.252c5.352-2.5,11.203-4.489,16.999-6.542
			c-8.722,0.174-18.138-0.35-26.432,0.264C63.626,6.32,66.522,9.855,69.335,11.252z M72.464,14.914
			c4.498,6.584,8.452,13.717,8.901,24.332c4.979,2.087,9.32,4.812,14.13,7.065c6.862-13.902,13.948-27.56,20.669-41.601
			c-0.179,0-0.345,0-0.522,0C98.754,5.613,84.947,9.595,72.464,14.914z M144.421,45.788c5.123-2.121,9.795-4.689,14.658-7.065
			c0.27-10.542,4.289-17.326,8.633-23.808c-12.461-5.413-26.409-9.361-43.438-10.204C130.124,18.223,137.854,32.124,144.421,45.788z
			 M171.114,11.252c2.824-2.309,5.759-4.532,8.892-6.542c-8.542,0.174-17.792-0.35-25.896,0.26
			C160.284,6.558,165.523,9.084,171.114,11.252z M174.518,14.914c-5.451,5.259-9.967,12.052-10.725,21.977
			c-1.063,13.781,4.199,23.134,10.46,29.309c8.176,8.081,21.365,12.152,33.75,9.167c10.949-2.653,19.932-10.602,24.326-20.669
			c5.327-12.189,2.1-27.016-3.914-35.324c-5.774-7.956-16.694-15.298-30.876-14.399C187.412,5.613,180.381,9.258,174.518,14.914z
			 M222.139,7.065c1.602-0.66,3.278-1.256,4.454-2.355c-2.529,0.174-5.754-0.35-7.854,0.264
			C219.941,5.604,221.159,6.217,222.139,7.065z M226.585,10.468c1.196,0.805,1.938,2.078,3.144,2.871
			c0.392-2.079,2.973-4.655,2.358-6.018C230.485,8.598,228.041,9.041,226.585,10.468z M10.461,13.083
			c1.408-0.601,2.164-1.848,3.135-2.879c-2.118-0.656-3.626-1.946-5.751-2.615C8.534,9.595,9.616,11.222,10.461,13.083z
			 M100.99,45.788c10.779-3.343,27.831-2.691,38.206-0.264c-6.568-12.359-12.53-25.329-19.106-37.688
			C113.626,20.395,107.336,33.114,100.99,45.788z M4.961,21.456c0.642-1.448,1.439-2.751,2.359-3.922
			c-0.733-1.891-1.595-3.637-2.615-5.226C4.87,15.263,4.352,18.926,4.961,21.456z M232.871,17.524
			c0.817,1.193,1.371,2.636,2.351,3.671c-0.17-2.7,0.351-6.103-0.264-8.377C234.471,14.595,233.348,15.753,232.871,17.524z
			 M149.131,49.19c4.604,1.755,8.696,4.042,12.567,6.542c-1.333-3.56-2.057-7.726-2.879-11.775
			C155.821,45.933,151.988,47.07,149.131,49.19z M78.489,55.464c3.999-2.019,7.417-4.625,12.035-6.022
			c-2.646-2.146-6.188-3.399-9.418-4.97C80.829,48.739,79.792,52.235,78.489,55.464z M103.34,50.23
			c5.532,2.67,10.813,5.579,16.49,8.109c5.191-2.998,11.009-5.37,16.217-8.373C126.913,47.427,112.186,47.41,103.34,50.23z
			 M142.074,52.329c-5.443,3.194-11.725,5.549-17.01,8.897c9.9,4.306,19.411,10.418,29.045,14.128
			C149.833,67.94,146.64,59.45,142.074,52.329z M97.589,52.585c-3.663,7.508-7.593,14.744-11.251,22.25
			c9.333-4.634,18.987-8.924,27.735-14.128C108.404,58.172,103.115,55.264,97.589,52.585z M54.42,91.052
			c8.103-4.361,16.604-8.338,24.849-12.559c3.981-8.143,8.209-16.049,12.042-24.332C74.402,61.669,61.336,74.421,54.42,91.052z
			 M161.17,79.272c8.318,4.08,16.404,8.373,24.858,12.295c-7.623-17.24-20.017-29.703-37.157-37.416
			c-0.158,0.017-0.311,0.042-0.271,0.269C152.977,62.533,156.95,71.023,161.17,79.272z M4.961,86.082
			c1.718-6.133,3.865-11.848,6.542-17.009c-2.293-3.107-4.757-6.058-6.812-9.414C4.87,68.37,4.352,77.794,4.961,86.082z
			 M228.679,69.073c2.548,5.31,4.574,11.132,6.542,17.009c-0.17-8.722,0.351-18.142-0.264-26.436
			C233.616,63.539,230.579,65.736,228.679,69.073z M157.764,82.679c-12.87-6.043-25.166-12.674-37.93-18.834
			c-12.068,5.206-24.676,12.131-36.897,18.063c-6.475,12.538-12.81,25.214-19.104,37.935c6.158,12.496,12.562,24.773,18.583,37.409
			c12.812,6.099,25.263,12.593,37.928,18.832c12.13-6.366,24.624-12.354,36.906-18.577c6.244-12.673,12.734-25.113,18.833-37.936
			C170.008,107.246,163.7,95.153,157.764,82.679z M15.172,72.211C9.414,84.425,5.66,98.65,4.706,115.64
			c13.986-6.601,27.356-13.8,41.342-20.41c-1.925-5.055-4.602-9.361-6.812-14.123C28.845,80.507,21.601,76.772,15.172,72.211z
			 M224.754,72.211c-6.176,4.723-13.586,8.215-23.808,8.896c-2.593,4.736-5.033,9.621-7.329,14.646
			c14.037,6.716,27.712,13.809,41.601,20.669C234.489,98.943,230.694,84.498,224.754,72.211z M44.468,80.848
			c1.562,3.229,2.821,6.776,4.977,9.421c1.418-4.438,4.515-8.578,6.021-12.04C52.303,79.613,48.603,80.443,44.468,80.848z
			 M190.998,90.528c1.394-3.395,3.177-6.427,4.71-9.685c-4.45-0.009-8.338-1.955-11.52-2.355
			C187.071,81.904,188.656,86.593,190.998,90.528z M52.589,97.07c2.727,5.905,5.606,11.658,8.63,17.267
			c4.471-9.655,10.384-19.272,14.12-28.783C67.936,89.57,60.142,93.203,52.589,97.07z M178.963,114.332
			c2.794-5.575,5.583-11.167,8.373-16.747c-7.76-3.134-14.889-8.305-22.503-10.728C169.774,95.788,173.879,105.559,178.963,114.332z
			 M7.836,119.571c12.468,6.367,24.938,12.75,37.685,18.84c-3.066-11.004-2.317-27.605,0-37.938
			C33.169,107.041,20.191,112.999,7.836,119.571z M194.142,138.937c12.698-6.133,25.263-12.42,37.682-18.837
			c-12.385-6.367-24.914-12.593-37.418-18.834C197.165,112.028,197.36,128.507,194.142,138.937z M50.23,136.316
			c1.211-2.714,2.726-5.191,4.189-8.104c1.169-2.316,3.975-6.27,3.916-8.633c-0.045-1.895-2.56-5.14-3.916-7.849
			c-1.789-3.543-2.979-6.929-4.453-8.632C47.7,112.531,47.147,127.314,50.23,136.316z M181.577,120.094
			c2.82,5.467,5.409,11.167,8.382,16.482c2.453-9.851,2.794-24.037-0.271-33.5C187.216,108.987,183.903,114.047,181.577,120.094z
			 M14.906,167.451c6.584-4.241,13.17-8.453,23.811-8.633c2.621-4.8,5.056-9.761,7.583-14.642
			c-13.897-6.855-27.556-13.946-41.597-20.662C5.447,140.802,9.463,154.841,14.906,167.451z M193.877,144.431
			c2.359,4.804,4.396,9.903,7.334,14.121c8.952,0.522,16.26,3.883,21.711,7.584c0.613,0.414,1.295,1.475,2.087,1.039
			c5.707-12.086,9.361-26.225,10.213-43.162c-0.17,0-0.35,0-0.52,0C221.087,130.822,207.488,137.619,193.877,144.431z
			 M52.589,142.074c7.548,3.522,15.351,8.198,22.758,10.992c-5.026-9.097-9.214-19.037-14.386-27.998
			C58.341,130.912,55.349,136.376,52.589,142.074z M164.304,153.849c7.889-3.541,15.152-7.711,23.031-11.25
			c-2.556-6.162-5.639-11.806-8.633-17.537C174.108,134.864,168.989,144.132,164.304,153.849z M91.572,185.761
			c-4.448-8.274-8.519-16.951-12.817-25.369c-8.592-3.799-16.294-8.471-24.861-12.295C61.42,165.505,74.549,178.716,91.572,185.761z
			 M160.915,160.91c-4.336,8.231-8.525,16.601-12.562,25.122c17.265-7.589,29.641-20.08,37.407-37.156
			c-0.051-0.199-0.213-0.294-0.511-0.265C177.307,152.888,168.989,156.779,160.915,160.91z M44.21,158.815
			c4.354,0.269,7.907,1.342,11.252,2.619c-2.381-3.905-4.408-8.146-6.542-12.281C47.53,152.542,45.745,155.562,44.21,158.815z
			 M184.72,161.425c3.066-1.55,7.229-2.014,10.996-2.869c-1.864-2.936-3.107-6.478-4.975-9.412
			C189.265,153.595,186.229,157.873,184.72,161.425z M4.961,180.011c1.422-3.648,4.906-6.602,6.271-9.42
			c-2.485-5.272-4.438-11.091-6.542-16.742C4.87,162.478,4.352,171.813,4.961,180.011z M228.679,171.114
			c2.53,2.623,4.574,5.72,6.542,8.896c-0.17-8.634,0.351-17.969-0.264-26.162C233.484,160.212,230.844,165.425,228.679,171.114z
			 M14.644,174.509c-4.963,5.314-9.975,13.914-9.938,24.858c0.061,20.692,16.292,35.918,36.104,35.851
			c19.812-0.086,35.765-15.574,35.586-36.375c-0.093-10.183-5.068-19.799-10.725-25.369c-6.009-5.924-15.8-10.596-26.693-9.943
			C27.613,164.193,19.928,168.849,14.644,174.509z M174.518,173.201c-5.257,5.114-9.778,12.073-10.725,21.716
			c-1.414,14.395,4.625,24.321,10.46,30.074c8.262,8.143,20.894,12.266,33.75,9.169c10.949-2.646,20.118-10.644,24.326-20.667
			c5.361-12.764,1.528-27.844-3.914-35.326c-5.996-8.244-16.644-15.554-30.876-14.65C187.637,164.15,179.827,168.03,174.518,173.201
			z M97.851,187.336c5.441-3.194,11.72-5.55,17.001-8.896c-9.736-4.299-19.34-10.141-28.785-13.868
			C90.237,171.929,93.546,180.121,97.851,187.336z M125.585,178.703c5.574,2.794,11.166,5.575,16.745,8.373
			c3.697-7.304,8.169-15.2,10.996-22.499C144.28,169.487,134.63,173.788,125.585,178.703z M103.34,189.951
			c9.902,2.517,24.211,2.789,33.755-0.269c-5.945-2.519-11.038-5.887-17.005-8.373C114.571,184.257,108.583,186.728,103.34,189.951z
			 M81.099,195.709c2.944-1.86,6.485-3.108,9.421-4.971c-4.361-1.92-8.486-4.071-12.293-6.541
			C79.666,187.554,80.267,191.748,81.099,195.709z M149.659,190.994c3.343,1.282,6.077,3.177,9.42,4.45
			c0.384-3.975,1.385-7.333,2.351-10.729c0.27-0.013,0.205-0.332-0.268-0.269C157.861,187.165,153.33,188.651,149.659,190.994z
			 M144.681,193.617c-7.496,13.429-14.098,27.759-21.184,41.601c17.554-0.584,31.583-4.707,44.223-10.209
			c-4.279-6.625-8.449-13.351-8.633-24.074C154.45,198.328,149.459,196.083,144.681,193.617z M95.5,193.877
			c-0.179,0-0.349,0-0.528,0c-4.53,2.53-9.763,4.361-13.872,7.33c-0.453,10.187-4.966,17.718-8.631,23.81
			c12.408,5.31,26.923,9.896,43.704,9.938C109.103,221.44,102.412,207.544,95.5,193.877z M120.09,231.814
			c6.022-12.64,12.418-24.908,18.577-37.412c-10.75,2.813-27.256,2.917-37.677-0.269C107.262,206.786,113.225,219.75,120.09,231.814
			z M4.961,226.32c0.725-1.278,1.218-2.794,2.089-3.918c-0.648-1.444-1.532-2.657-2.358-3.918
			C4.87,221.001,4.352,224.229,4.961,226.32z M232.871,222.653c0.817,1.451,1.38,3.15,2.351,4.449
			c-0.17-2.793,0.351-6.271-0.264-8.627C234.583,220.197,233.288,220.989,232.871,222.653z M7.312,232.339
			c2.125-0.934,4.327-1.777,6.027-3.146c-1.209-0.812-1.941-2.078-3.148-2.875C9.267,228.356,8.102,230.157,7.312,232.339z
			 M226.585,229.459c1.921,0.958,3.841,1.912,5.754,2.88c-0.954-2.016-1.602-4.332-3.135-5.759
			C228.719,227.935,227.487,228.53,226.585,229.459z M69.068,228.675c-2.609,1.576-5.936,4.702-9.158,6.543
			c8.722-0.176,18.142,0.351,26.428-0.27C79.949,233.492,74.681,230.911,69.068,228.675z M171.114,228.675
			c-5.421,2.428-11.204,4.489-17.005,6.543c8.633-0.176,17.964,0.351,26.165-0.27C176.527,233.552,174.19,230.745,171.114,228.675z
			 M222.402,232.599c-1.001,1.184-2.727,1.64-3.927,2.627c2.879-0.174,6.447,0.341,8.9-0.271
			C225.537,234.345,224.081,233.347,222.402,232.599z M12.55,235.218c2.879-0.176,6.45,0.34,8.897-0.27
			C18.639,232.538,15.276,232.785,12.55,235.218z"/>
		<text transform="matrix(1 0 0 1 189.45 56.2559)" fill="#FFFFFF" font-family="'TimesNewRomanPS-BoldMT'" font-size="52.3291">I</text>
		<text transform="matrix(1 0 0 1 24.3308 218.7842)" fill="#FFFFFF" font-family="'TimesNewRomanPS-BoldMT'" font-size="52.3291">P</text>
		<text transform="matrix(1 0 0 1 185.0789 218.7764)" fill="#FFFFFF" font-family="'TimesNewRomanPS-BoldMT'" font-size="52.3291">S</text>
	</g>
	<g id="_x35_DQn70_1_">
		<g>
			<path fill="#FFFFFF" stroke="#FFFFFF" stroke-width="1.5717" stroke-miterlimit="10" d="M20.149,49.944
				c0.449-0.175,0.871-0.336,1.294-0.507c3.767-1.512,7.12-3.675,10.099-6.427c2.684-2.483,4.928-5.315,6.838-8.419
				c1.74-2.819,3.137-5.813,4.169-8.965c0.346-1.065,0.687-2.129,1.04-3.19c0.196-0.601,0.496-1.137,1.055-1.469
				c0.772-0.456,1.593-0.511,2.417-0.166c0.798,0.336,1.155,1.141,0.902,2.048c-0.703,2.539-1.476,5.051-2.6,7.444
				c-0.828,1.759-1.87,3.399-3.026,4.966c-1.256,1.699-2.546,3.377-3.96,4.957c-2.585,2.879-5.577,5.255-8.9,7.231
				c-2.848,1.695-5.855,3.023-9.006,4.029c-0.857,0.277-1.727,0.537-2.625,0.66c-0.653,0.089-1.315,0.127-1.97,0.025
				c-0.639-0.102-0.822-0.388-0.673-1.018c0.274-1.15,0.566-2.296,0.845-3.45c0.782-3.156,1.563-6.312,2.338-9.472
				c1.064-4.348,2.119-8.692,3.18-13.04c0.021-0.089,0.04-0.183,0.049-0.269c0.047-0.485-0.162-0.822-0.646-1
				c-0.605-0.222-1.229-0.319-1.876-0.328c-0.67-0.008-1.348-0.008-2.014-0.03c-0.332-0.008-0.507-0.158-0.541-0.485
				c-0.032-0.272-0.041-0.554,0-0.826c0.083-0.558,0.383-0.809,1.003-0.869c1.448-0.132,2.896-0.264,4.344-0.396
				c1.095-0.098,2.189-0.213,3.283-0.302c0.45-0.042,0.907-0.064,1.36-0.042c0.388,0.017,0.615,0.272,0.579,0.66
				c-0.038,0.4-0.13,0.796-0.23,1.192c-1.03,4.14-2.071,8.279-3.102,12.423c-0.75,3.015-1.503,6.03-2.236,9.049
				c-0.471,1.934-0.916,3.88-1.365,5.822C20.165,49.825,20.161,49.872,20.149,49.944z"/>
			<path fill="#FFFFFF" stroke="#FFFFFF" stroke-width="1.5717" stroke-miterlimit="10" d="M58.677,41.014
				c0.321-0.388,0.618-0.741,0.92-1.09c0.94-1.112,2.035-2.036,3.366-2.641c1.243-0.566,2.546-0.775,3.907-0.673
				c0.82,0.064,1.61,0.23,2.328,0.639c0.894,0.507,1.543,1.248,1.806,2.24c0.328,1.235-0.029,2.309-0.962,3.186
				c-0.433,0.4-0.916,0.711-1.514,0.788c-0.698,0.094-1.353-0.051-1.915-0.485c-0.502-0.383-0.637-0.933-0.583-1.538
				c0.122-1.482,0.967-2.364,2.34-2.802c0.07-0.021,0.132-0.042,0.232-0.072c-0.354-0.234-0.707-0.396-1.082-0.52
				c-1.017-0.319-2.02-0.196-3.014,0.115c-1.182,0.366-2.176,1.048-3.053,1.904c-0.854,0.843-1.59,1.789-2.255,2.79
				c-0.667,1-1.021,2.138-1.307,3.3c-0.941,3.816-1.876,7.632-2.817,11.443c-0.354,1.427-0.732,2.845-1.086,4.268
				c-0.266,1.043-1.225,1.576-1.968,1.635c-0.667,0.06-1.221-0.136-1.604-0.715c-0.24-0.358-0.311-0.754-0.207-1.175
				c1.022-4.148,2.051-8.301,3.075-12.449c0.424-1.712,0.873-3.42,1.252-5.149c0.229-1.039,0.345-2.1,0.483-3.156
				c0.053-0.392,0.062-0.801,0.027-1.197c-0.036-0.417-0.215-0.801-0.44-1.154c-0.358-0.562-1.09-0.766-1.84-0.536
				c-0.541,0.17-0.956,0.515-1.327,0.928c-0.638,0.711-1.033,1.546-1.361,2.436c-0.52,1.414-0.907,2.866-1.299,4.314
				c-0.018,0.06-0.032,0.128-0.053,0.188c-0.135,0.413-0.454,0.596-0.837,0.494c-0.42-0.115-0.62-0.426-0.524-0.852
				c0.45-1.997,1.003-3.96,1.915-5.805c0.349-0.703,0.756-1.363,1.318-1.917c0.787-0.775,1.73-1.163,2.834-1.171
				c1.106-0.004,2.14,0.264,3.062,0.898c1.042,0.724,1.669,1.738,1.998,2.943C58.558,40.613,58.615,40.792,58.677,41.014z"/>
		</g>
	</g>
</g>
</svg>
